<svg id="Layer_1" data-name="Layer 1" xmlns="http://www.w3.org/2000/svg" viewBox="0 0 46 46" class="w-10 md:w-12"><defs><style>
      .cls-1 {
        fill: #002b56;
        stroke-width: 0px;
      }
    </style></defs><g><polygon class="cls-1" points="44.58 20.15 40.31 15.91 44.58 11.63 44.96 11.25 44.58 10.87 41.72 8.01 41.34 7.63 40.96 8.01 36.69 12.29 32.44 8.01 32.06 7.63 31.68 8.01 28.82 10.87 28.44 11.25 28.82 11.63 33.07 15.91 28.82 20.16 28.44 20.53 28.82 20.91 31.68 23.78 32.06 24.15 32.44 23.78 36.69 19.53 40.96 23.78 41.34 24.15 41.72 23.78 44.58 20.91 44.96 20.53 44.58 20.15"></polygon><polygon class="cls-1" points="20.86 7.38 20.86 27.41 26.17 27.41 26.17 5 20.86 7.38"></polygon><path class="cls-1" d="M12.3,19.44c-.09,1.71-1.5,3.07-3.23,3.07s-3.24-1.45-3.24-3.24,1.45-3.24,3.24-3.24,3.14,1.36,3.23,3.07v.35ZM12.3,11.21v.7c-.99-.44-2.08-.68-3.23-.68-4.44,0-8.03,3.6-8.03,8.03s3.6,8.03,8.03,8.03c1.15,0,2.24-.24,3.23-.68v.79h5.31V11.21h-5.31Z"></path></g><g><path class="cls-1" d="M1.98,34.5v1.07h1.88v.75h-1.88v1.48h-.94v-4.06h3.07v.75H1.98Z"></path><path class="cls-1" d="M8.35,37.05v.75h-3.14v-4.06h3.07v.75h-2.13v.88h1.88v.73h-1.88v.94h2.21Z"></path><path class="cls-1" d="M9.56,33.75h.94v3.29h2.04v.77h-2.97v-4.06Z"></path><path class="cls-1" d="M13.53,33.75h.94v3.29h2.04v.77h-2.97v-4.06Z"></path><path class="cls-1" d="M17.17,35.78c0-1.21.94-2.1,2.22-2.1s2.22.89,2.22,2.1-.95,2.1-2.22,2.1-2.22-.89-2.22-2.1ZM20.66,35.78c0-.77-.55-1.3-1.27-1.3s-1.27.53-1.27,1.3.54,1.3,1.27,1.3,1.27-.53,1.27-1.3Z"></path><path class="cls-1" d="M28.78,33.75l-1.33,4.06h-1.01l-.89-2.75-.92,2.75h-1l-1.33-4.06h.97l.92,2.85.96-2.85h.87l.93,2.88.95-2.88h.9Z"></path><path class="cls-1" d="M29.45,37.41l.32-.71c.34.25.85.42,1.34.42.56,0,.78-.19.78-.43,0-.76-2.36-.24-2.36-1.75,0-.69.56-1.26,1.71-1.26.51,0,1.03.12,1.41.36l-.29.71c-.38-.21-.77-.32-1.12-.32-.56,0-.77.21-.77.46,0,.75,2.36.23,2.36,1.72,0,.68-.56,1.26-1.72,1.26-.64,0-1.29-.19-1.65-.47Z"></path><path class="cls-1" d="M37.65,33.75v4.06h-.94v-1.66h-1.84v1.66h-.94v-4.06h.94v1.6h1.84v-1.6h.94Z"></path><path class="cls-1" d="M39.08,33.75h.94v4.06h-.94v-4.06Z"></path><path class="cls-1" d="M44.96,35.22c0,.9-.68,1.47-1.76,1.47h-.82v1.12h-.94v-4.06h1.76c1.08,0,1.76.56,1.76,1.47ZM44.01,35.22c0-.45-.29-.71-.86-.71h-.77v1.41h.77c.57,0,.86-.26.86-.7Z"></path></g></svg>