<svg id="Layer_1" data-name="Layer 1" xmlns="http://www.w3.org/2000/svg" viewBox="0 0 200 200"><defs><style>.cls-1{fill:#f0c24b;}</style></defs><path class="cls-1" d="M123.11,156.91H76.89a33.83,33.83,0,0,1-33.8-33.8V76.89a33.83,33.83,0,0,1,33.8-33.8h46.22a33.83,33.83,0,0,1,33.8,33.8v46.22A33.83,33.83,0,0,1,123.11,156.91ZM76.89,54.11A22.81,22.81,0,0,0,54.11,76.89v46.22a22.81,22.81,0,0,0,22.78,22.78h46.22a22.81,22.81,0,0,0,22.78-22.78V76.89a22.81,22.81,0,0,0-22.78-22.78Z"/><path class="cls-1" d="M81.34,82.44h27.58a6.31,6.31,0,0,1,0,12.61h-6.51a5.71,5.71,0,0,0,0,11.42h6.51a17.73,17.73,0,1,0,0-35.46H81.34a5.72,5.72,0,0,0,0,11.43Z"/><path class="cls-1" d="M121.16,117.56H89c-.74,0-1.32,0-1.78-.07V98.91h2.34a1,1,0,0,0,.8-1.66l-3.79-4.42-4.42-5.15a1.05,1.05,0,0,0-1.6,0l-4.42,5.15-3.79,4.42a1,1,0,0,0,.8,1.66h2.66v20.91c0,3.42,1.71,9.17,13.2,9.17h32.17a5.72,5.72,0,0,0,0-11.43Z"/></svg>