<svg width="42" height="22" viewBox="0 0 42 22" fill="none" xmlns="http://www.w3.org/2000/svg"><g id="logo 3" clip-path="url(#clip0_1895_68794)"><path id="Vector" d="M41.5622 14.5594L37.4365 10.5117L41.5643 6.43716L41.9303 6.07573L41.5643 5.71435L38.8005 2.98625L38.4344 2.62485L38.0683 2.98625L33.9405 7.06082L29.84 2.98625L29.4739 2.62485L29.1057 2.98625L26.342 5.71435L25.9779 6.07573L26.342 6.43716L30.4446 10.5117L26.342 14.5615L25.9758 14.9229L26.342 15.2843L29.1057 18.0124L29.4718 18.3738L29.8379 18.0124L33.9405 13.9626L38.0704 18.0124L38.4365 18.3738L38.8005 18.0124L41.5643 15.2843L41.9324 14.9209L41.5622 14.5594Z" fill="#DDA617"></path><path id="Vector_2" d="M18.9252 2.26759V21.3736H24.1204V0L18.9252 2.26759Z" fill="#DDA617"></path><path id="Vector_3" d="M10.8443 13.8152C10.8003 14.6178 10.4405 15.3717 9.84152 15.9166C9.24252 16.4615 8.45158 16.7542 7.63707 16.7325C6.82256 16.7108 6.04881 16.3764 5.48049 15.8004C4.91217 15.2244 4.59414 14.4523 4.59414 13.6485C4.59414 12.8447 4.91217 12.0727 5.48049 11.4967C6.04881 10.9207 6.82256 10.5863 7.63707 10.5646C8.45158 10.5429 9.24252 10.8356 9.84152 11.3805C10.4405 11.9254 10.8003 12.6793 10.8443 13.4819V13.8152ZM10.8443 5.9996V6.6639C9.6676 6.15316 8.38031 5.93997 7.09902 6.04361C5.81768 6.14726 4.58283 6.5645 3.50615 7.25755C2.42948 7.95061 1.54502 8.89759 0.932814 10.0128C0.320612 11.128 0 12.3762 0 13.6444C0 14.9126 0.320612 16.1608 0.932814 17.276C1.54502 18.3912 2.42948 19.3383 3.50615 20.0313C4.58283 20.7243 5.81768 21.1416 7.09902 21.2452C8.38031 21.3489 9.6676 21.1357 10.8443 20.6249V21.3736H15.9566V6.00575L10.8443 5.9996Z" fill="#DDA617"></path></g><defs><clipPath id="clip0_1895_68794"><rect width="41.9488" height="21.61" fill="white"></rect></clipPath></defs></svg>